<svg xmlns="http://www.w3.org/2000/svg" viewBox="0 0 195.658 176.663">
  <defs>
    <style>
      .cls-1 {
        fill: none;
      }

      .cls-2, .cls-3 {
        fill: #f5f6fa;
      }

      .cls-2 {
        stroke: #b6b9c3;
        stroke-width: 6px;
      }

      .cls-3 {
        stroke-linecap: round;
        stroke-linejoin: bevel;
      }

      .cls-4, .cls-5 {
        stroke: none;
      }

      .cls-5 {
        fill: #b6b9c3;
      }
    </style>
  </defs>
  <g id="home" transform="translate(41 -447.337)">
    <g id="Rectangle_9" data-name="Rectangle 9" class="cls-2" transform="translate(-22 508)">
      <rect class="cls-4" width="157" height="116"/>
      <rect class="cls-1" x="3" y="3" width="151" height="110"/>
    </g>
    <g id="Union_1" data-name="Union 1" class="cls-3" transform="translate(-41 432)">
      <path class="cls-4" d="M 176.0003967285156 94.99919128417969 C 174.021484375 94.99919128417969 172.0841522216797 94.66299438476563 170.2421417236328 93.99996185302734 C 168.4617767333984 93.35907745361328 166.8086700439453 92.42816162109375 165.3287506103516 91.23304748535156 C 162.3628997802734 88.83793640136719 160.2662506103516 85.48641204833984 159.4251098632813 81.79582977294922 L 153.5751953125 81.79554748535156 C 152.7335968017578 85.48635101318359 150.6368103027344 88.83798980712891 147.6710968017578 91.23307800292969 C 146.1912078857422 92.42818450927734 144.5381774902344 93.35910797119141 142.7578887939453 93.99996185302734 C 140.9160003662109 94.66299438476563 138.9786987304688 94.99919128417969 136.9998168945313 94.99919128417969 C 135.0332336425781 94.99919128417969 133.1073150634766 94.66710662841797 131.2755279541016 94.01216125488281 C 129.5050048828125 93.37913513183594 127.8591461181641 92.45907592773438 126.383674621582 91.27758026123047 C 123.4293670654297 88.91191101074219 121.3247528076172 85.59485626220703 120.4575042724609 81.93749237060547 L 119.9069213867188 79.61554718017578 L 117.5206451416016 79.62971496582031 L 117.4456481933594 79.63010406494141 L 115.0856475830078 79.64176940917969 L 114.5413665771484 81.93816375732422 C 113.6745071411133 85.59535217285156 111.570198059082 88.91224670410156 108.6160583496094 91.27780151367188 C 107.1406707763672 92.45921325683594 105.4948654174805 93.37921905517578 103.724365234375 94.01221466064453 C 101.8926162719727 94.66712951660156 99.96669769287109 94.99919128417969 98.00009155273438 94.99919128417969 C 96.02236938476563 94.99919128417969 94.08614349365234 94.66340637207031 92.24523162841797 94.00119018554688 C 90.46589660644531 93.36112976074219 88.81356048583984 92.43129730224609 87.33414459228516 91.237548828125 C 84.3695068359375 88.84535217285156 82.27191925048828 85.49691009521484 81.42786407470703 81.80910491943359 L 80.90248107910156 79.51374053955078 L 78.54803466796875 79.47876739501953 L 78.54048156738281 79.47866058349609 L 76.11312103271484 79.44277191162109 L 75.57170104980469 81.80927276611328 C 74.72803497314453 85.49696350097656 72.63075256347656 88.84532928466797 69.66619873046875 91.237548828125 C 68.18686676025391 92.43129730224609 66.53456115722656 93.36112976074219 64.75522613525391 94.00119018554688 C 62.91434097290039 94.66340637207031 60.97811889648438 94.99919128417969 59.00039672851563 94.99919128417969 C 57.02147674560547 94.99919128417969 55.08414459228516 94.66299438476563 53.24214553833008 93.99996185302734 C 51.46178436279297 93.35907745361328 49.80867385864258 92.42816162109375 48.32875442504883 91.23304748535156 C 45.36286926269531 88.83793640136719 43.26625442504883 85.48638153076172 42.42509078979492 81.79582977294922 L 36.57517242431641 81.79554748535156 C 35.73358917236328 85.48635101318359 33.63681030273438 88.83798980712891 30.67106246948242 91.23307800292969 C 29.19120025634766 92.42818450927734 27.53817367553711 93.35910797119141 25.75789451599121 93.99996185302734 C 23.91600608825684 94.66299438476563 21.97870063781738 94.99919128417969 19.99981117248535 94.99919128417969 C 15.45895099639893 94.99919128417969 11.18989562988281 93.23091125488281 7.979089736938477 90.02010345458984 C 4.768283843994141 86.80929565429688 3.000006198883057 82.54026794433594 3.000006198883057 77.99941253662109 C 3.000006198883057 74.58335113525391 4.008395195007324 71.28990936279297 5.916145324707031 68.47515869140625 L 6.03331184387207 68.30226898193359 L 6.12539529800415 68.11483001708984 C 9.723700523376465 60.79035568237305 16.6783390045166 49.66399383544922 26.23750686645508 35.93863296508789 C 31.88722229003906 27.82653617858887 36.92090606689453 21.00008964538574 38.90155792236328 18.33691024780273 L 156.3330688476563 18.33691024780273 C 158.3660278320313 20.97882461547852 163.6173858642578 27.86583709716797 169.4804534912109 36.05152130126953 C 179.3301239013672 49.80310440063477 186.4244537353516 60.95249176025391 189.9964752197266 68.29435729980469 L 190.0828704833984 68.47188568115234 L 190.1917572021484 68.63655090332031 C 191.3202056884766 70.34310150146484 192.1219787597656 72.21588134765625 192.5748138427734 74.20291137695313 L 192.5997009277344 74.20288848876953 L 192.5997009277344 75.13210296630859 L 192.5997009277344 75.31577301025391 L 192.6221160888672 75.49807739257813 C 192.6793975830078 75.96415710449219 192.6540374755859 76.20388031005859 192.6404724121094 76.28532409667969 L 192.5997009277344 76.53007507324219 L 192.5997009277344 76.77821350097656 L 192.5997009277344 81.79592132568359 L 192.5748138427734 81.79588317871094 C 191.733642578125 85.48682403564453 189.6371765136719 88.83846282958984 186.6715850830078 91.23341369628906 C 185.1918182373047 92.42843627929688 183.5388336181641 93.35926818847656 181.7585601806641 94.00007629394531 C 179.9166717529297 94.66301727294922 177.9793701171875 94.99919128417969 176.0003967285156 94.99919128417969 Z"/>
      <path class="cls-5" d="M 176.0004119873047 91.99920654296875 C 182.5053405761719 91.99920654296875 188.0664520263672 87.62800598144531 189.5997009277344 81.34178924560547 L 189.5997009277344 76.77820587158203 L 189.5997009277344 75.13211059570313 L 189.5997009277344 74.65730285644531 C 189.2190093994141 73.10108184814453 188.5606689453125 71.60485076904297 187.2988128662109 69.60686492919922 C 180.0847473144531 54.77925109863281 160.8113250732422 29.13310432434082 154.8523101806641 21.33689308166504 L 40.41311264038086 21.33689308166504 C 34.58341979980469 29.22817802429199 16.00247573852539 54.79263687133789 8.39947509765625 70.15830230712891 C 6.82972526550293 72.47435760498047 6.000006198883057 75.18576812744141 6.000006198883057 77.9993896484375 C 6.000006198883057 85.71892547607422 12.28028774261475 91.99920654296875 19.99981880187988 91.99920654296875 C 26.47313117980957 91.99920654296875 32.21397399902344 87.42745208740234 33.6502571105957 81.12860870361328 L 45.35006713867188 81.12917327880859 C 46.78566360473633 87.42770385742188 52.52644348144531 91.99920654296875 59.00041198730469 91.99920654296875 C 65.57175445556641 91.99920654296875 71.18700408935547 87.53199005126953 72.65563201904297 81.13570404052734 L 84.35222625732422 81.13973999023438 C 85.81569671630859 87.53364562988281 91.42787933349609 91.99920654296875 98.00009918212891 91.99920654296875 C 104.5199737548828 91.99920654296875 110.1215972900391 87.57745361328125 111.6222229003906 81.24626922607422 L 117.5050659179688 76.62976837158203 L 123.3765716552734 81.24533081054688 C 124.8779449462891 87.57704925537109 130.4800415039063 91.99920654296875 136.9998168945313 91.99920654296875 C 143.4731292724609 91.99920654296875 149.2139739990234 87.42745208740234 150.6502532958984 81.12860870361328 L 162.3500671386719 81.12917327880859 C 163.7856597900391 87.42770385742188 169.5264434814453 91.99920654296875 176.0004119873047 91.99920654296875 M 176.0004119873047 97.99920654296875 C 166.4891967773438 97.99920654296875 158.5278167724609 91.35901641845703 156.5001068115234 82.46251678466797 C 154.4715118408203 91.35901641845703 146.5110015869141 97.99920654296875 136.9998168945313 97.99920654296875 C 127.5483779907227 97.99920654296875 119.6282272338867 91.44273376464844 117.538444519043 82.62967681884766 C 117.5103530883789 82.62982940673828 117.4885711669922 82.62992095947266 117.4604721069336 82.63008117675781 C 115.3715667724609 91.44317626953125 107.4515075683594 97.99920654296875 98.00009918212891 97.99920654296875 C 88.49469757080078 97.99920654296875 80.53807067871094 91.36764526367188 78.50347137451172 82.47842407226563 C 78.49784851074219 82.47836303710938 78.50175476074219 82.4783935546875 78.49616241455078 82.47833251953125 C 76.46244049072266 91.36754608154297 68.50579071044922 97.99920654296875 59.00041198730469 97.99920654296875 C 49.48919296264648 97.99920654296875 41.5278205871582 91.35901641845703 39.50009918212891 82.46251678466797 C 37.47150802612305 91.35901641845703 29.51100540161133 97.99920654296875 19.99981880187988 97.99920654296875 C 8.954099655151367 97.99920654296875 6.286621101025958e-06 89.04511260986328 6.286621101025958e-06 77.9993896484375 C 6.286621101025958e-06 73.84648895263672 1.266037583351135 69.9888916015625 3.432787418365479 66.79201507568359 C 12.3940372467041 48.55101776123047 37.3976936340332 15.33689308166504 37.3976936340332 15.33689308166504 L 157.8059997558594 15.33689308166504 C 157.8059997558594 15.33689308166504 183.7760925292969 48.65201950073242 192.6941375732422 66.98186492919922 C 193.9959716796875 68.95057678222656 194.9589691162109 71.16313934326172 195.4998168945313 73.53630065917969 C 195.5313262939453 73.39679718017578 195.5646057128906 73.25820159912109 195.5997009277344 73.11961364746094 L 195.5997009277344 75.13211059570313 C 195.6762237548828 75.75473785400391 195.6785125732422 76.30507659912109 195.5997009277344 76.77820587158203 L 195.5997009277344 82.88011169433594 C 195.5646057128906 82.74148559570313 195.5313262939453 82.60289001464844 195.4998168945313 82.46251678466797 C 193.4721069335938 91.35989379882813 185.5116271972656 97.99920654296875 176.0004119873047 97.99920654296875 Z"/>
    </g>
    <g id="Rectangle_10" data-name="Rectangle 10" class="cls-2" transform="translate(3 557)">
      <rect class="cls-4" width="41" height="67"/>
      <rect class="cls-1" x="3" y="3" width="35" height="61"/>
    </g>
    <g id="Rectangle_11" data-name="Rectangle 11" class="cls-2" transform="translate(61 541)">
      <rect class="cls-4" width="55" height="28"/>
      <rect class="cls-1" x="3" y="3" width="49" height="22"/>
    </g>
  </g>
</svg>
